<?xml version="1.0" encoding="utf-8"?>
<!-- Generator: Adobe Illustrator 23.0.4, SVG Export Plug-In . SVG Version: 6.00 Build 0)  -->
<svg version="1.1" id="Calque_1" xmlns="http://www.w3.org/2000/svg" xmlns:xlink="http://www.w3.org/1999/xlink" x="0px" y="0px"
	 viewBox="0 0 22 26" style="enable-background:new 0 0 22 26;" xml:space="preserve">
<title>icon-deco</title>
<desc>Created with Sketch.</desc>
<g id="icon-deco">
	<g id="Group-6" transform="translate(1.000000, 0.000000)">
		<path d="M9.9,25.7c-5.7,0-10.3-4.6-10.3-10.3c0-5.1,3.6-9.3,8.6-10.1l0.2,1c-4.5,0.7-7.8,4.6-7.8,9.1c0,5.1,4.2,9.3,9.3,9.3
			s9.3-4.2,9.3-9.3c0-4.6-3.3-8.4-7.8-9.1l0.2-1c5,0.8,8.6,5.1,8.6,10.1C20.2,21.1,15.6,25.7,9.9,25.7z"/>
		<rect x="9.4" y="0.4" width="1" height="13.3"/>
	</g>
</g>
</svg>
